<svg width="1024" height="1024" viewBox="0 0 1024 1024" fill="none" xmlns="http://www.w3.org/2000/svg">
<rect width="1024" height="1024" fill="#0A2528"/>
<mask id="path-2-inside-1_134_391" fill="white">
<path fill-rule="evenodd" clip-rule="evenodd" d="M647.675 175.642C665.869 174.646 684.608 174.561 702.587 177.193C712.067 178.595 723.987 182.274 727.345 184.23C731.044 186.355 733.765 189.629 735.38 194.008C736.741 197.707 736.698 207.739 735.253 214.924C732.404 229.293 726.92 245.661 719.735 261.306C715.781 269.893 710.723 279.63 708.045 283.796C704.431 289.45 704.218 289.833 703.496 291.235C701.625 294.892 691.506 309.048 685.767 316.106C670.973 334.174 657.655 346.715 643.116 352.284C638.465 354.063 634.605 355.244 629.901 356.588C627.053 357.396 622.997 357.32 615.982 357.15C609.24 356.999 599.672 354.479 595.314 352.792C591.923 351.479 589.151 350.149 586.244 348.671C584.586 347.778 578.889 344.207 575.02 341.571C566.361 336.159 557.982 327.703 552.021 319.507C550.873 317.977 548.45 315.043 546.877 313.3C544.092 309.72 541.342 304.48 538.969 300.418C537.014 297.102 533.06 288.728 532.04 285.794C529.382 278.175 527.208 270.654 525.721 262.672C523.444 250.559 525.338 241.232 527.789 229.591C528.257 227.465 531.232 221.386 533.613 217.858C541.52 205.869 551.808 197.877 566.475 192.393C574.425 189.459 576.253 188.821 583.693 186.526C592.098 183.906 600.671 182.479 609.201 180.488C610.476 180.191 614.048 179.553 617.066 179.043C631.563 176.832 637.005 176.194 647.675 175.642ZM630.322 200.952C617.51 200.952 607.124 211.338 607.124 224.15C607.124 236.961 617.51 247.348 630.322 247.348C643.134 247.348 653.519 236.961 653.519 224.15C653.519 211.338 643.133 200.952 630.322 200.952Z"/>
</mask>
<path fill-rule="evenodd" clip-rule="evenodd" d="M647.675 175.642C665.869 174.646 684.608 174.561 702.587 177.193C712.067 178.595 723.987 182.274 727.345 184.23C731.044 186.355 733.765 189.629 735.38 194.008C736.741 197.707 736.698 207.739 735.253 214.924C732.404 229.293 726.92 245.661 719.735 261.306C715.781 269.893 710.723 279.63 708.045 283.796C704.431 289.45 704.218 289.833 703.496 291.235C701.625 294.892 691.506 309.048 685.767 316.106C670.973 334.174 657.655 346.715 643.116 352.284C638.465 354.063 634.605 355.244 629.901 356.588C627.053 357.396 622.997 357.32 615.982 357.15C609.24 356.999 599.672 354.479 595.314 352.792C591.923 351.479 589.151 350.149 586.244 348.671C584.586 347.778 578.889 344.207 575.02 341.571C566.361 336.159 557.982 327.703 552.021 319.507C550.873 317.977 548.45 315.043 546.877 313.3C544.092 309.72 541.342 304.48 538.969 300.418C537.014 297.102 533.06 288.728 532.04 285.794C529.382 278.175 527.208 270.654 525.721 262.672C523.444 250.559 525.338 241.232 527.789 229.591C528.257 227.465 531.232 221.386 533.613 217.858C541.52 205.869 551.808 197.877 566.475 192.393C574.425 189.459 576.253 188.821 583.693 186.526C592.098 183.906 600.671 182.479 609.201 180.488C610.476 180.191 614.048 179.553 617.066 179.043C631.563 176.832 637.005 176.194 647.675 175.642ZM630.322 200.952C617.51 200.952 607.124 211.338 607.124 224.15C607.124 236.961 617.51 247.348 630.322 247.348C643.134 247.348 653.519 236.961 653.519 224.15C653.519 211.338 643.133 200.952 630.322 200.952Z" fill="#FF9900"/>
<path d="M647.675 175.642L648.089 183.631L648.101 183.63L648.112 183.63L647.675 175.642ZM702.587 177.193L703.758 169.279L703.745 169.277L702.587 177.193ZM727.345 184.23L723.32 191.143L723.339 191.154L723.359 191.166L727.345 184.23ZM735.38 194.008L742.889 191.247L742.886 191.239L735.38 194.008ZM735.253 214.924L727.41 213.346L727.407 213.357L727.405 213.368L735.253 214.924ZM719.735 261.306L727.002 264.651L727.005 264.644L719.735 261.306ZM708.045 283.796L701.315 279.47L701.309 279.479L701.304 279.488L708.045 283.796ZM703.496 291.235L696.384 287.572L696.379 287.582L696.374 287.592L703.496 291.235ZM685.767 316.106L691.957 321.174L691.965 321.164L691.974 321.153L685.767 316.106ZM643.116 352.284L645.973 359.757L645.977 359.755L643.116 352.284ZM629.901 356.588L632.084 364.285L632.091 364.282L632.099 364.28L629.901 356.588ZM615.982 357.15L616.176 349.152L616.169 349.152L616.161 349.152L615.982 357.15ZM595.314 352.792L592.426 360.253H592.426L595.314 352.792ZM586.244 348.671L582.451 355.715L582.535 355.76L582.619 355.803L586.244 348.671ZM575.02 341.571L579.525 334.96L579.394 334.871L579.26 334.787L575.02 341.571ZM552.021 319.507L558.491 314.802L558.456 314.754L558.421 314.707L552.021 319.507ZM546.877 313.3L540.562 318.211L540.741 318.442L540.937 318.66L546.877 313.3ZM538.969 300.418L545.877 296.383L545.869 296.369L545.86 296.354L538.969 300.418ZM532.04 285.794L539.596 283.166L539.593 283.159L532.04 285.794ZM525.721 262.672L533.586 261.208L533.584 261.194L525.721 262.672ZM527.789 229.591L519.976 227.871L519.968 227.907L519.96 227.943L527.789 229.591ZM533.613 217.858L540.245 222.332L540.268 222.297L540.291 222.262L533.613 217.858ZM566.475 192.393L563.706 184.887L563.69 184.893L563.673 184.899L566.475 192.393ZM583.693 186.526L586.052 194.17L586.063 194.167L586.074 194.163L583.693 186.526ZM609.201 180.488L611.019 188.279L611.019 188.279L609.201 180.488ZM617.066 179.043L615.86 171.135L615.796 171.144L615.733 171.155L617.066 179.043ZM630.322 200.952L630.322 192.952H630.322V200.952ZM607.124 224.15L599.124 224.149V224.15H607.124ZM630.322 247.348V255.348H630.322L630.322 247.348ZM653.519 224.15H661.519V224.149L653.519 224.15ZM647.675 175.642L648.112 183.63C666.08 182.647 684.213 182.589 701.428 185.108L702.587 177.193L703.745 169.277C685.002 166.534 665.658 166.646 647.238 167.654L647.675 175.642ZM702.587 177.193L701.415 185.106C705.701 185.741 710.683 186.916 715.018 188.183C719.631 189.53 722.581 190.713 723.32 191.143L727.345 184.23L731.371 177.316C728.751 175.791 724.062 174.156 719.505 172.825C714.671 171.413 708.952 170.047 703.758 169.279L702.587 177.193ZM727.345 184.23L723.359 191.166C725.316 192.291 726.86 194.026 727.875 196.777L735.38 194.008L742.886 191.239C740.67 185.232 736.772 180.42 731.332 177.294L727.345 184.23ZM735.38 194.008L727.872 196.769C727.852 196.713 727.901 196.838 727.975 197.216C728.045 197.573 728.118 198.053 728.181 198.659C728.309 199.877 728.378 201.401 728.369 203.115C728.35 206.577 728.011 210.355 727.41 213.346L735.253 214.924L743.095 216.502C743.939 212.308 744.345 207.478 744.369 203.203C744.39 199.269 744.108 194.563 742.889 191.247L735.38 194.008ZM735.253 214.924L727.405 213.368C724.699 227.023 719.434 242.792 712.465 257.967L719.735 261.306L727.005 264.644C734.405 248.53 740.11 231.564 743.1 216.479L735.253 214.924ZM719.735 261.306L712.468 257.96C708.556 266.457 703.684 275.785 701.315 279.47L708.045 283.796L714.774 288.122C717.762 283.475 723.006 273.329 727.002 264.651L719.735 261.306ZM708.045 283.796L701.304 279.488C697.736 285.071 697.309 285.777 696.384 287.572L703.496 291.235L710.608 294.899C711.128 293.889 711.127 293.829 714.785 288.104L708.045 283.796ZM703.496 291.235L696.374 287.592C695.763 288.786 693.156 292.722 689.57 297.748C686.138 302.559 682.282 307.712 679.561 311.058L685.767 316.106L691.974 321.153C694.992 317.442 699.065 311.988 702.594 307.042C705.97 302.311 709.358 297.341 710.618 294.879L703.496 291.235ZM685.767 316.106L679.577 311.037C664.92 328.938 652.718 340.039 640.254 344.814L643.116 352.284L645.977 359.755C662.592 353.391 677.025 339.409 691.957 321.174L685.767 316.106ZM643.116 352.284L640.259 344.812C635.919 346.471 632.31 347.579 627.703 348.896L629.901 356.588L632.099 364.28C636.899 362.909 641.01 361.654 645.973 359.757L643.116 352.284ZM629.901 356.588L627.718 348.892C627.251 349.024 626.306 349.184 624.288 349.238C622.288 349.292 619.744 349.238 616.176 349.152L615.982 357.15L615.788 365.147C619.235 365.231 622.226 365.3 624.72 365.233C627.195 365.166 629.703 364.96 632.084 364.285L629.901 356.588ZM615.982 357.15L616.161 349.152C610.623 349.028 601.998 346.801 598.202 345.332L595.314 352.792L592.426 360.253C597.347 362.157 607.857 364.97 615.803 365.148L615.982 357.15ZM595.314 352.792L598.202 345.332C595.165 344.156 592.66 342.958 589.868 341.539L586.244 348.671L582.619 355.803C585.642 357.339 588.681 358.803 592.426 360.253L595.314 352.792ZM586.244 348.671L590.037 341.627C588.754 340.937 583.334 337.555 579.525 334.96L575.02 341.571L570.516 348.183C574.444 350.859 580.417 354.62 582.451 355.715L586.244 348.671ZM575.02 341.571L579.26 334.787C571.655 330.034 563.992 322.366 558.491 314.802L552.021 319.507L545.551 324.212C551.972 333.041 561.066 342.284 570.78 348.355L575.02 341.571ZM552.021 319.507L558.421 314.707C557.111 312.96 554.531 309.84 552.816 307.94L546.877 313.3L540.937 318.66C542.369 320.246 544.635 322.993 545.621 324.307L552.021 319.507ZM546.877 313.3L553.191 308.388C550.841 305.366 548.575 301.002 545.877 296.383L538.969 300.418L532.062 304.453C534.109 307.958 537.344 314.074 540.562 318.211L546.877 313.3ZM538.969 300.418L545.86 296.354C544.127 293.415 540.415 285.52 539.596 283.166L532.04 285.794L524.484 288.422C525.706 291.935 529.901 300.789 532.078 304.482L538.969 300.418ZM532.04 285.794L539.593 283.159C537.029 275.809 534.979 268.689 533.586 261.208L525.721 262.672L517.856 264.136C519.436 272.618 521.735 280.542 524.486 288.429L532.04 285.794ZM525.721 262.672L533.584 261.194C531.632 250.812 533.161 242.906 535.617 231.239L527.789 229.591L519.96 227.943C517.515 239.558 515.257 250.306 517.859 264.15L525.721 262.672ZM527.789 229.591L535.602 231.311C535.561 231.496 535.608 231.252 535.955 230.413C536.253 229.691 536.665 228.787 537.156 227.794C538.159 225.764 539.32 223.702 540.245 222.332L533.613 217.858L526.981 213.383C525.525 215.542 524.009 218.283 522.811 220.707C521.74 222.874 520.446 225.735 519.976 227.871L527.789 229.591ZM533.613 217.858L540.291 222.262C547.186 211.809 556.055 204.83 569.277 199.886L566.475 192.393L563.673 184.899C547.562 190.924 535.855 199.929 526.935 213.453L533.613 217.858ZM566.475 192.393L569.245 199.898C577.088 197.004 578.777 196.415 586.052 194.17L583.693 186.526L581.334 178.881C573.73 181.228 571.762 181.915 563.706 184.887L566.475 192.393ZM583.693 186.526L586.074 194.163C594.133 191.651 601.801 190.43 611.019 188.279L609.201 180.488L607.383 172.698C599.542 174.527 590.063 176.16 581.312 178.888L583.693 186.526ZM609.201 180.488L611.019 188.279C612 188.05 615.296 187.456 618.399 186.931L617.066 179.043L615.733 171.155C612.799 171.651 608.952 172.332 607.383 172.698L609.201 180.488ZM617.066 179.043L618.272 186.952C632.623 184.763 637.78 184.165 648.089 183.631L647.675 175.642L647.262 167.652C636.229 168.224 630.503 168.902 615.86 171.135L617.066 179.043ZM630.322 200.952V192.952C613.092 192.952 599.124 206.919 599.124 224.149L607.124 224.15L615.124 224.15C615.124 215.757 621.928 208.952 630.322 208.952V200.952ZM607.124 224.15H599.124C599.124 241.38 613.092 255.348 630.322 255.348V247.348V239.348C621.928 239.348 615.124 232.543 615.124 224.15H607.124ZM630.322 247.348L630.322 255.348C647.552 255.348 661.519 241.379 661.519 224.15H653.519H645.519C645.519 232.543 638.715 239.348 630.322 239.348L630.322 247.348ZM653.519 224.15L661.519 224.149C661.519 206.92 647.552 192.952 630.322 192.952L630.322 200.952L630.322 208.952C638.715 208.952 645.519 215.756 645.519 224.15L653.519 224.15Z" fill="white" fill-opacity="0.5" mask="url(#path-2-inside-1_134_391)"/>
<path d="M487.826 227.722C480.939 231.208 480.811 231.251 473.924 235.715C461.859 243.507 450.151 251.629 438.936 260.627C431.326 266.749 430.816 267.175 424.311 272.956C416.659 279.758 404.287 291.79 401.099 295.488C397.737 299.481 394.137 303.272 390.726 307.222C388.303 309.985 381.033 319.041 379.927 320.656C379.375 321.506 378.354 322.909 377.632 323.845C373.36 329.215 369.654 335.263 366.493 341.36C364.665 344.889 364.543 346.135 364.883 347.028C365.563 348.771 367.688 349.294 372.194 348.996C379.921 348.454 387.514 344.892 394.935 342.72C399.739 341.402 405.903 339.744 408.751 338.979C410.154 338.639 412.45 338.001 413.853 337.576C424.846 334.578 435.918 331.824 446.801 328.436C451.052 327.118 458.024 324.44 462.871 322.187C470.948 318.445 476.9 313.301 485.615 302.503C492.679 293.716 495.52 293.684 499.571 283.199C500.889 279.883 502.578 268.28 502.918 258.502C503.136 253.527 503.257 248.096 504.618 243.41C505.476 240.459 507.042 234.694 508.955 230.528C509.93 228.401 511.616 225.361 509.412 223.869C508.137 223.018 506.487 222.139 503.086 222.182C497.765 222.288 492.373 225.39 487.826 227.722Z" fill="#FFC800"/>
<path d="M369.158 345.049C369.792 345.087 370.683 345.087 371.915 345.006C375.289 344.769 378.751 343.863 382.445 342.665C385.91 341.541 390.09 339.971 393.811 338.882L393.844 338.872L393.876 338.863C398.691 337.542 404.866 335.881 407.714 335.116L407.761 335.103L407.809 335.092C409.123 334.773 411.345 334.156 412.693 333.748L412.746 333.732L412.801 333.717C423.91 330.687 434.818 327.977 445.611 324.617L445.616 324.615C449.687 323.353 456.492 320.741 461.185 318.56L461.189 318.557C468.485 315.177 473.979 310.553 482.498 299.998V299.997C484.351 297.692 485.929 295.96 487.297 294.51C488.709 293.013 489.725 291.99 490.703 290.864C492.458 288.844 493.957 286.629 495.84 281.757L495.853 281.722C496.308 280.578 497.013 277.313 497.649 272.724C498.263 268.303 498.756 263.096 498.921 258.363V258.345L498.922 258.327C499.13 253.558 499.25 247.552 500.777 242.294C501.59 239.498 503.25 233.368 505.318 228.862V228.861C505.623 228.197 505.832 227.779 506.071 227.223C506.159 227.019 506.23 226.838 506.288 226.68C506.14 226.613 505.988 226.552 505.821 226.498C505.3 226.33 504.477 226.166 503.139 226.183C501.203 226.226 499.066 226.822 496.71 227.808C494.317 228.809 492.054 230.049 489.651 231.281L489.632 231.291L487.385 232.43C482.757 234.779 482.015 235.237 476.1 239.071L476.094 239.075C464.849 246.337 453.963 253.858 443.521 262.091L441.439 263.747C433.876 269.831 433.416 270.215 426.969 275.946C419.345 282.722 407.136 294.611 404.128 298.101C400.865 301.972 396.873 306.224 393.753 309.837L393.743 309.848L393.733 309.859L393.232 310.438C390.478 313.665 384.139 321.584 383.228 322.915H383.227C382.587 323.89 381.535 325.334 380.797 326.29L380.762 326.335C376.946 331.132 373.569 336.543 370.627 342.09L370.044 343.201C369.64 343.981 369.357 344.585 369.158 345.049Z" stroke="white" stroke-opacity="0.5" stroke-width="8"/>
<path d="M268.458 283.5C240.346 299.822 252.47 328.531 280.361 328.649C302.924 328.649 345.997 320.241 363.007 306.202C367.301 302.694 406.266 270.076 405.69 266.962C405.355 265.151 393.574 266.367 364.537 265.984C332.844 265.573 296.514 267.393 268.458 283.5Z" fill="#6CB800"/>
<path d="M280.373 324.649C291.263 324.647 307.34 322.602 322.813 318.805C338.432 314.972 352.694 309.527 360.461 303.116L360.468 303.111L360.477 303.104C362.588 301.38 373.364 292.38 383.532 283.432C388.621 278.953 393.511 274.528 397.075 271.051C397.471 270.665 397.846 270.292 398.202 269.937C397.5 269.934 396.733 269.934 395.895 269.938C389.753 269.965 380.321 270.151 367.166 270.016L364.485 269.984C332.793 269.572 297.481 271.458 270.466 286.959C257.543 294.463 254.954 303.97 257.212 310.913C259.565 318.144 267.746 324.593 280.373 324.649Z" stroke="white" stroke-opacity="0.5" stroke-width="8"/>
<path d="M507.361 290.157C503.014 294.054 498.938 299.66 495.375 304.288C493.76 306.413 488.017 314.432 486.572 316.175C471.951 334.17 466.745 352.252 456.175 372.335C448.353 387.3 444.897 397.618 442.771 409.31C440.686 420.619 444.283 424.105 456.175 420.672C476.683 414.661 496.984 411.662 518.129 409.31C535.425 405.306 548.908 388.825 564.796 380.625C574.872 375.353 574.928 375.287 579.287 373.319C590.351 368.322 572.173 365.868 557.229 355.84C542.284 345.811 524.58 329.397 519.698 311.177C518.966 308.447 514.146 283.795 507.361 290.157Z" fill="#FFC800"/>
<path d="M448.813 417.935C450.237 417.95 452.268 417.636 455.066 416.829V416.83C475.819 410.748 496.304 407.719 517.433 405.364C525.114 403.533 532.168 398.914 539.588 393.342C546.846 387.893 554.623 381.374 562.961 377.071C572.07 372.305 573.045 371.764 576.505 370.188C576.417 370.144 576.328 370.096 576.236 370.05C571.705 367.806 562.752 364.362 555 359.161C547.319 354.006 538.891 347.189 531.723 339.263C524.58 331.364 518.498 322.156 515.833 312.211C515.363 310.457 514.111 304.137 512.055 298.665C511.154 296.266 510.271 294.546 509.539 293.586C506.717 296.219 503.998 299.623 501.338 303.081L498.544 306.728C497.207 308.49 491.867 315.92 489.981 318.318L489.651 318.728C482.632 327.373 477.84 336.072 473.461 345.202C469.151 354.19 465.029 364.098 459.719 374.188H459.72C452.054 388.853 448.749 398.79 446.706 410.025L446.705 410.035L446.54 410.992C446.198 413.141 446.145 414.724 446.284 415.849C446.438 417.097 446.777 417.431 446.863 417.506C446.965 417.596 447.408 417.92 448.813 417.935Z" stroke="white" stroke-opacity="0.5" stroke-width="8"/>
<path d="M289.714 347.565C278.263 352.838 266.945 358.889 258.849 368.864C256.086 372.308 253.45 377.325 252.047 381.788C250.559 386.465 250.644 391.609 252.26 395.52C254.3 400.452 258.424 404.108 263.313 405.426C278.289 409.39 290.674 394.587 299.279 384.977C302.213 381.703 306.336 377.24 308.42 375.029C318.701 364.254 348.996 346.885 348.996 333.791C339.577 330.297 296.87 344.232 289.714 347.565Z" fill="#00B5D6"/>
<path d="M264.34 401.561C270.175 403.104 275.762 401.119 281.329 397.06C286.953 392.96 291.887 387.236 296.299 382.309L296.3 382.307C299.259 379.006 303.405 374.517 305.508 372.286L305.526 372.268C308.327 369.332 312.374 366.057 316.634 362.729C320.99 359.326 325.642 355.813 330.014 352.197C334.388 348.58 338.262 345.037 341.016 341.698C342.401 340.018 343.378 338.536 344.018 337.246C342.198 337.301 339.961 337.542 337.395 337.951C332.155 338.786 325.864 340.264 319.555 341.978C306.854 345.429 294.66 349.675 291.403 351.192L291.395 351.195L291.386 351.199L289.26 352.189C278.691 357.172 268.972 362.748 261.969 371.368C259.537 374.398 257.127 378.966 255.863 382.988L255.859 383.001L255.746 383.37C254.62 387.183 254.793 391.173 255.956 393.991C257.539 397.816 260.704 400.576 264.34 401.561Z" stroke="white" stroke-opacity="0.5" stroke-width="8"/>
<path d="M313.65 481.272C314.47 475.049 315.548 468.918 316.63 462.764C317.014 460.577 317.399 458.387 317.773 456.189C322.734 428.185 330.298 413.528 338.734 395.608C346.044 382.035 350.107 376.657 355.745 371.913C362.155 366.519 369.896 360.548 377.292 357.994C394.528 352.041 420.35 345.333 446.376 340.553C449.989 339.915 453.603 339.363 454.368 339.32C456.196 339.278 457.429 339.958 457.429 341.021C457.429 351.905 448.778 366.738 443.06 376.052C440.551 380.218 436.598 388.678 433.919 395.608C433.537 396.543 432.856 398.839 432.346 400.709C432.154 401.422 431.957 402.165 431.754 402.931C429.556 411.223 426.623 422.29 420.74 428.173C418.062 430.936 415.256 432.892 405.35 438.759C400.036 441.905 387.027 450.407 383.669 452.915C382.989 453.426 380.098 455.636 377.292 457.847C372.998 461.206 370.66 463.246 363.603 469.581C356.859 475.616 350.804 483.849 344.676 492.18C341.768 496.134 310.307 545.569 310.896 524.315C309.016 511.629 312.067 494.115 313.65 481.272Z" fill="#FFCE00"/>
<path d="M314.895 524.359C315.682 523.717 316.617 522.852 317.684 521.749C319.431 519.944 321.356 517.697 323.351 515.202C331.516 504.993 339.669 492.236 341.454 489.809C347.515 481.568 353.82 472.97 360.931 466.604V466.603C367.991 460.266 370.416 458.148 374.816 454.706V454.705C377.641 452.479 380.559 450.249 381.269 449.716L381.275 449.711C384.784 447.09 397.923 438.507 403.313 435.316V435.317C413.282 429.413 415.62 427.708 417.868 425.389L417.912 425.345C420.264 422.993 422.224 419.373 423.895 415.021C425.549 410.717 426.78 406.084 427.887 401.906C428.09 401.141 428.29 400.39 428.485 399.667L428.487 399.657C428.974 397.871 429.697 395.396 430.189 394.167L430.188 394.166C432.911 387.121 436.96 378.427 439.632 373.988L439.642 373.974L439.651 373.959C442.497 369.324 445.984 363.455 448.757 357.449C451.088 352.401 452.757 347.575 453.265 343.486C452.906 343.538 452.497 343.598 452.048 343.667C450.632 343.885 448.859 344.177 447.083 344.49C421.217 349.242 395.603 355.902 378.598 361.775C371.989 364.058 364.762 369.554 358.321 374.974C353.277 379.218 349.507 384.052 342.302 397.418C333.887 415.289 326.561 429.515 321.712 456.887H321.711C321.337 459.088 320.952 461.28 320.57 463.457C319.621 468.854 318.688 474.158 317.929 479.502L317.616 481.795C316.804 488.378 315.675 495.736 314.957 503.234C314.239 510.72 313.986 517.878 314.853 523.728L314.904 524.075L314.895 524.359Z" stroke="white" stroke-opacity="0.5" stroke-width="8"/>
<path d="M618.512 378.239C614.013 379.679 600.655 384.596 598.359 385.617C597.891 385.829 595.213 386.892 592.407 387.955C587.315 389.865 582.337 392.037 577.315 394.119C571.533 396.543 564.306 400.496 556.484 405.555C546.068 412.273 538.756 420.265 533.399 430.893C527.681 442.189 522.487 456.549 524.877 470.749C525.823 476.373 527.199 477.545 529.02 481.186C530.295 483.865 534.079 487.861 536.205 488.839C540.584 490.879 543.304 491.474 548.364 491.474C553.295 491.474 556.611 490.837 560.225 489.136C565.206 486.792 569.855 483.448 573.489 479.273C576.261 476.039 579.297 473.085 581.694 469.538C583.692 466.434 588.708 456.699 589.771 453.85C591.629 448.741 593.638 443.701 595.383 438.546C598.105 430.665 601.542 423.254 604.736 415.589C608.35 407.043 612.091 399.816 615.364 395.055C616.555 393.354 617.702 391.654 617.915 391.229C619.676 388.588 628.282 379.27 625.26 377.255C623.292 376.131 620.48 377.61 618.512 378.239Z" fill="#00C5D2"/>
<path d="M548.364 487.474C552.858 487.474 555.563 486.909 558.521 485.517C563.061 483.381 567.243 480.356 570.471 476.647C573.541 473.069 576.126 470.62 578.347 467.346C579.235 465.961 580.9 462.926 582.527 459.766C583.975 456.955 585.233 454.355 585.816 452.969L586.024 452.452C587.941 447.181 589.865 442.373 591.594 437.264L591.598 437.252L591.602 437.239C594.378 429.203 597.929 421.524 601.044 414.05L601.051 414.03C604.715 405.366 608.579 397.865 612.068 392.789L612.078 392.774L612.088 392.761C612.672 391.926 613.24 391.099 613.682 390.438C613.904 390.107 614.085 389.83 614.217 389.622C614.384 389.36 614.389 389.337 614.338 389.439L614.449 389.217L614.587 389.01C615.144 388.174 616.172 386.9 617.091 385.736C618.033 384.541 619.037 383.247 619.913 381.988C619.851 382.009 619.791 382.03 619.731 382.049C615.3 383.467 602.093 388.335 599.983 389.272H599.982C599.31 389.572 596.542 390.665 593.824 391.695L593.811 391.7L591.941 392.415C588.833 393.623 585.767 394.914 582.638 396.228L578.847 397.814C573.358 400.116 566.353 403.936 558.656 408.914L558.651 408.917L557.737 409.516C548.378 415.738 541.832 423.046 536.97 432.693L536.967 432.7C531.354 443.789 526.651 457.185 528.822 470.086C529.637 474.929 530.512 475.226 532.597 479.397L532.615 479.432L532.632 479.467C533.015 480.271 533.965 481.591 535.206 482.908C536.507 484.29 537.548 485.054 537.877 485.205L537.894 485.213C541.723 486.997 543.865 487.474 548.364 487.474Z" stroke="white" stroke-opacity="0.5" stroke-width="8"/>
<path d="M489.729 424.918C437.49 425.558 383.665 461.976 388.982 518.045C391.974 548.312 408.007 540.107 423.418 524.634C430.348 517.705 439.275 510.095 442.804 508.054C456.508 500.441 456.979 483.276 465.548 471.493L465.716 471.233C474.856 457.025 484.867 442.633 496.498 430.298C497.901 428.767 498.433 426.768 498.305 426.598C497.71 425.62 493.393 424.873 489.729 424.918Z" fill="#74BD00"/>
<path d="M401.415 534.494C403.468 534.429 406.257 533.375 409.741 531.058C413.149 528.791 416.829 525.582 420.584 521.812L420.59 521.806C424.135 518.261 428.177 514.555 431.788 511.47C435.314 508.457 438.682 505.818 440.802 504.592L440.831 504.574L440.861 504.558C446.516 501.416 449.616 496.261 452.43 489.75C455.082 483.613 457.652 475.607 462.232 469.255L462.352 469.068C471.177 455.349 480.922 441.285 492.228 429.014C491.42 428.944 490.58 428.908 489.778 428.918C464.507 429.228 438.9 438.207 420.342 453.761C401.86 469.25 390.449 491.149 392.964 517.668C393.687 524.974 395.158 529.361 396.785 531.8C398.236 533.976 399.737 534.548 401.415 534.494Z" stroke="white" stroke-opacity="0.5" stroke-width="8"/>
<path d="M178.542 454.105C174.248 454.827 171.528 456.698 168.467 461.077C166.131 464.364 166.551 471.272 168.509 474.681C172.079 480.763 179.853 485.084 186.917 482.206C189.341 481.228 193.039 477.912 194.527 475.446C196.487 472.179 196.756 465.652 194.74 462.352C191.14 456.426 185.483 452.975 178.542 454.105Z" fill="#00BFEB"/>
<path d="M171.969 472.673C174.906 477.66 180.795 480.381 185.408 478.502L185.421 478.497C186.01 478.259 187.137 477.533 188.412 476.397C189.654 475.29 190.633 474.154 191.097 473.39V473.389C191.599 472.551 192.076 470.857 192.126 468.813C192.177 466.745 191.771 465.166 191.326 464.438L191.321 464.429C188.363 459.559 184.166 457.25 179.205 458.05H179.206C177.515 458.334 176.341 458.803 175.316 459.511C174.248 460.249 173.121 461.401 171.745 463.369L171.736 463.381L171.728 463.393L171.645 463.521C171.23 464.211 170.831 465.681 170.877 467.743C170.925 469.865 171.428 471.72 171.969 472.673Z" stroke="white" stroke-opacity="0.5" stroke-width="8"/>
<path d="M373.04 477.058C350.235 495.225 324.681 523.557 315.647 552.264C310.333 584.067 334.282 642.317 349.742 668.793C351.996 672.746 352.931 673.214 354.674 671.216C363.558 660.556 363.697 642.259 367.003 629.425C371.581 610.54 377.535 592.967 386.261 575.476C391.58 564.78 393.258 548.463 383.158 539.68C378.226 535.344 376.526 529.902 376.526 518.041C376.483 510.941 376.951 506.222 378.354 499.76C379.384 494.611 385.574 476.151 381.117 474.125C378.54 472.917 375.052 475.531 373.04 477.058Z" fill="#7DBF00"/>
<path d="M353.106 666.62C355.962 662.285 357.698 656.662 359.013 650.323C359.772 646.665 360.361 642.948 360.986 639.211C361.525 635.988 362.092 632.748 362.811 629.714L363.13 628.427C367.761 609.335 373.804 591.489 382.679 573.697V573.696C385.083 568.861 386.651 562.753 386.493 556.97C386.335 551.212 384.498 546.147 380.533 542.699L380.525 542.691L380.516 542.684C377.515 540.045 375.436 536.976 374.17 532.859C372.952 528.903 372.527 524.109 372.526 518.065C372.482 510.72 372.972 505.715 374.431 498.977V498.976C374.72 497.533 375.353 495.224 375.979 492.847C376.632 490.369 377.338 487.61 377.873 484.975C378.418 482.288 378.734 479.972 378.711 478.319C378.71 478.251 378.707 478.187 378.705 478.125C378.67 478.14 378.634 478.155 378.597 478.172C377.582 478.66 376.525 479.436 375.492 480.219C353.032 498.12 328.304 525.702 319.548 553.199C317.164 568.054 321.514 589.623 328.701 611.265C335.846 632.781 345.538 653.626 353.106 666.62Z" stroke="white" stroke-opacity="0.5" stroke-width="8"/>
<path d="M788.605 495.3C734.847 506.672 686.208 541.279 650.608 582.239C644.698 589.084 642.105 592.697 642.658 593.25C643.253 593.803 644.188 593.42 647.164 591.422C679.75 569.427 720.046 559.45 758.421 552.693C779.025 549.095 848.275 544.39 835.667 507.714C829.461 490.201 803.715 492.104 788.605 495.3Z" fill="#00C5EB"/>
<path d="M657.703 580.269C688.417 563.154 724.046 554.684 757.728 548.753L757.734 548.752C768.539 546.866 790.29 544.899 808.214 538.82C817.159 535.786 824.482 531.923 828.828 527.047C830.951 524.666 832.324 522.089 832.891 519.246C833.457 516.407 833.269 513.052 831.891 509.034C829.506 502.329 823.35 498.919 814.903 497.7C806.474 496.482 796.788 497.657 789.434 499.213C738.764 509.932 692.492 541.801 657.703 580.269Z" stroke="white" stroke-opacity="0.5" stroke-width="8"/>
<path d="M498.412 533.053C502.734 537.635 508.101 537.163 512.398 532.585C517.092 527.362 517.525 519.416 512.483 514.304C501.192 502.875 488.612 522.821 498.412 533.053Z" fill="#00B8DA"/>
<path d="M505.221 532.259C506.324 532.205 507.81 531.613 509.445 529.885C512.916 525.998 512.968 520.495 509.638 517.116C507.531 514.983 505.869 514.746 504.781 514.922C503.525 515.125 502.061 516.04 500.832 517.825C498.279 521.532 498.045 526.887 501.3 530.286L501.311 530.297L501.321 530.308C502.843 531.921 504.187 532.309 505.221 532.259Z" stroke="white" stroke-opacity="0.5" stroke-width="8"/>
<path d="M652.692 524.933C651.543 528.686 653.97 531.881 658.133 530.97C662.386 530.018 663.488 524.496 659.876 521.787C656.596 519.402 653.802 521.341 652.692 524.933Z" fill="#0094A7"/>
<path d="M656.477 527.097C656.545 527.116 656.789 527.167 657.26 527.066C657.529 527.006 657.68 526.897 657.778 526.792C657.889 526.673 657.984 526.498 658.027 526.277C658.107 525.861 657.99 525.382 657.489 524.999C657.355 524.904 657.247 524.844 657.167 524.804C657.138 524.838 657.102 524.88 657.064 524.933C656.934 525.113 656.785 525.376 656.647 525.73L656.513 526.114C656.333 526.71 656.422 527.004 656.461 527.092C656.466 527.093 656.471 527.095 656.477 527.097Z" stroke="white" stroke-opacity="0.5" stroke-width="8"/>
<path d="M437.66 528.801C432.558 532.669 425.798 540.194 418.571 549.93C418.189 550.397 417.211 551.758 416.318 552.906C413.597 556.562 413.002 557.455 411.216 561.196C409.048 565.66 407.943 569.316 407.008 575.608C406.285 580.242 406.285 580.709 407.008 586.661C407.433 590.062 407.943 593.633 408.198 594.569C408.411 595.504 408.878 597.417 409.176 598.82C409.729 601.116 410.919 604.644 411.939 606.897C413.852 611.234 414.49 612.807 414.49 613.147C414.49 614.04 420.017 625.518 421.547 627.729C422.1 628.579 422.567 629.387 422.567 629.514C422.567 630.322 428.222 638.145 431.283 641.546C437.405 648.433 446.12 653.492 451.902 653.492C454.707 653.492 458.279 652.046 460.277 650.048C462.912 647.455 465.166 642.396 465.761 637.889C466.143 634.744 464.06 628.452 459.979 620.502C458.831 618.163 457.853 616.123 457.853 615.91C457.853 615.74 457.343 614.465 456.748 613.147C456.153 611.829 455.388 610.086 455.048 609.321C454.707 608.598 454.197 607.323 453.857 606.557C452.624 603.794 451.094 599.543 449.351 594.143C448.373 591.083 447.395 588.022 447.14 587.341C446.885 586.619 446.417 584.663 446.12 582.963C445.822 581.262 445.355 579.561 445.142 579.136C444.929 578.754 444.632 577.181 444.462 575.693C444.292 574.205 443.994 572.377 443.739 571.654C443.271 570.039 442.251 560.856 441.911 554.606C441.741 552.013 441.826 547.251 442.081 543.978C442.634 537.006 442.931 528.461 442.634 527.695C442.251 526.633 439.828 527.143 437.66 528.801Z" fill="#00B9DD"/>
<path d="M451.901 649.492C453.671 649.492 456.217 648.45 457.448 647.219L457.46 647.209L457.471 647.197C459.314 645.384 461.271 641.255 461.789 637.407H461.79C461.868 636.763 461.697 635.116 460.748 632.257C459.848 629.55 458.4 626.184 456.421 622.329L456.404 622.297L456.388 622.264C455.813 621.092 455.268 619.969 454.863 619.104C454.663 618.677 454.481 618.278 454.344 617.954C454.277 617.797 454.199 617.611 454.133 617.424C454.1 617.334 454.052 617.193 454.007 617.027C454.001 617.005 453.983 616.938 453.96 616.838C453.927 616.749 453.879 616.617 453.81 616.445C453.633 616.003 453.38 615.408 453.102 614.794L451.392 610.945C451.056 610.216 450.393 608.612 450.204 608.187C448.879 605.219 447.295 600.798 445.544 595.373L445.541 595.361C444.534 592.208 443.603 589.303 443.394 588.746L443.381 588.71L443.368 588.672C443.001 587.632 442.488 585.415 442.18 583.652C442.051 582.919 441.884 582.177 441.729 581.584C441.652 581.287 441.584 581.051 441.532 580.889C441.515 580.836 441.501 580.8 441.493 580.777C441.278 580.314 441.159 579.878 441.107 579.686C441.014 579.34 440.932 578.962 440.86 578.594C440.716 577.853 440.584 576.983 440.488 576.147C440.411 575.472 440.304 574.72 440.191 574.072C440.135 573.748 440.081 573.471 440.033 573.255C439.979 573.015 439.952 572.945 439.967 572.985L439.929 572.877L439.896 572.766C439.686 572.04 439.501 570.871 439.343 569.745C439.168 568.505 438.982 566.966 438.801 565.299C438.441 561.987 438.096 558.075 437.92 554.868C437.734 552.032 437.828 547.072 438.094 543.668V543.662C438.365 540.238 438.574 536.419 438.679 533.373C438.682 533.283 438.683 533.193 438.686 533.104C434.187 536.903 428.266 543.581 421.783 552.314L421.726 552.39L421.667 552.463L421.376 552.84C421.24 553.021 421.063 553.258 420.844 553.552C420.454 554.076 419.977 554.715 419.513 555.313C416.916 558.802 416.469 559.476 414.826 562.919L414.82 562.931L414.814 562.943L414.458 563.691C412.73 567.394 411.796 570.602 410.965 576.196L410.962 576.21L410.96 576.224C410.593 578.577 410.466 579.556 410.466 580.64C410.466 581.788 410.608 583.132 410.978 586.179L410.977 586.18C411.187 587.856 411.418 589.561 411.624 590.954C411.727 591.653 411.823 592.257 411.905 592.731C411.946 592.968 411.982 593.16 412.012 593.307C412.04 593.447 412.056 593.509 412.057 593.516L412.08 593.598L412.098 593.682C412.279 594.477 412.767 596.489 413.07 597.909C413.57 599.974 414.675 603.244 415.583 605.248L415.598 605.283C416.555 607.451 417.214 608.976 417.637 610.011C417.845 610.523 418.019 610.972 418.146 611.346C418.21 611.532 418.28 611.751 418.338 611.981C418.358 612.061 418.393 612.208 418.426 612.401C418.437 612.433 418.452 612.47 418.468 612.512C418.588 612.828 418.781 613.291 419.041 613.884C419.557 615.061 420.273 616.602 421.047 618.205C422.666 621.557 424.287 624.658 424.836 625.452L424.869 625.5L424.901 625.548C425.207 626.019 425.503 626.498 425.734 626.902C425.846 627.097 425.97 627.321 426.077 627.539C426.128 627.642 426.205 627.806 426.278 627.997C426.306 628.068 426.341 628.173 426.381 628.301C426.478 628.475 426.636 628.738 426.865 629.095C427.388 629.91 428.143 631.004 429.017 632.213C430.782 634.65 432.865 637.324 434.256 638.87L434.264 638.879L434.272 638.888C437.049 642.012 440.425 644.728 443.725 646.641C447.116 648.607 450.02 649.492 451.901 649.492ZM453.864 616.189C453.865 616.208 453.866 616.227 453.868 616.245C453.866 616.226 453.865 616.208 453.864 616.189ZM453.884 616.388C453.885 616.398 453.885 616.407 453.887 616.416C453.889 616.438 453.894 616.459 453.897 616.479C453.893 616.45 453.887 616.42 453.884 616.388Z" stroke="white" stroke-opacity="0.5" stroke-width="8"/>
<path d="M192.359 538.618C186.152 540.403 181.731 545.802 180.37 553.242C172.396 599.892 227.177 653.807 265.566 673.002C267.765 674.17 277.925 677.372 275.387 675.68C258.503 664.936 253.248 641.803 246.776 624.112C242.473 612.35 238.322 599.807 235.722 587.55C231.9 569.203 218.287 531.055 192.359 538.618Z" fill="#00CEEC"/>
<path d="M259.506 665.137C257.2 661.648 255.246 657.928 253.534 654.153C249.228 644.654 246.112 633.94 243.019 625.486C238.694 613.664 234.468 600.913 231.809 588.38L231.808 588.373L231.806 588.366C229.948 579.445 225.724 565.861 218.983 555.558C215.619 550.416 211.794 546.35 207.576 543.98C203.483 541.68 198.877 540.883 193.479 542.457L193.471 542.459L193.464 542.461L193.049 542.59C188.787 543.994 185.42 547.889 184.308 553.946C180.628 575.555 191.452 599.512 208.696 620.908C223.511 639.289 242.57 655.145 259.506 665.137Z" stroke="white" stroke-opacity="0.5" stroke-width="8"/>
<path d="M560.735 554.394C558.011 559.728 557.977 566.451 560.991 571.697C564.704 577.999 573.377 579.451 579.866 577.266C589.133 573.926 593.443 562.277 589.389 553.671C583.915 542.204 566.27 543.641 560.735 554.394Z" fill="#00BEED"/>
<path d="M564.447 569.685C566.856 573.745 573.133 575.297 578.556 573.486C585.439 570.97 588.875 561.966 585.77 555.376C583.877 551.43 579.835 549.483 575.271 549.696C570.637 549.912 566.287 552.349 564.292 556.225C562.149 560.431 562.167 565.699 564.447 569.685Z" stroke="white" stroke-opacity="0.5" stroke-width="8"/>
<circle cx="858.081" cy="581.536" r="13.9186" fill="#00B0E5"/>
<circle cx="858.081" cy="581.536" r="9.91865" stroke="white" stroke-opacity="0.5" stroke-width="8"/>
<path d="M741.629 574.754C741.161 574.924 737.803 575.222 734.189 575.349C730.49 575.477 725.389 575.987 722.498 576.497C719.692 576.965 715.313 577.73 712.72 578.198C705.152 579.516 701.114 580.663 690.188 584.617C687.637 585.552 684.959 586.53 684.236 586.785C682.706 587.295 675.818 590.186 672.332 591.759C670.929 592.397 668.549 593.502 667.061 594.183C663.66 595.713 642.233 606.469 638.747 608.382C637.344 609.147 635.431 610.21 634.496 610.72C633.56 611.188 629.819 613.313 626.206 615.397C622.592 617.437 618.766 619.605 617.703 620.158C616.64 620.711 614.514 621.986 612.941 622.964C611.368 623.942 606.182 627.13 601.463 630.021C596.701 632.955 589.602 637.461 585.606 640.054C579.144 644.306 575.955 646.304 572.299 648.344C571.661 648.684 568.558 650.427 565.412 652.213C558.822 655.912 552.615 658.973 543.518 662.969C542.115 663.607 540.627 664.329 540.159 664.542C539.734 664.797 538.671 665.265 537.821 665.562C536.97 665.902 535.227 666.54 533.952 667.05C529.233 668.921 520.943 671.769 519.072 672.194C518.01 672.407 516.394 672.832 515.459 673.172C512.908 674.022 506.659 675.128 501.727 675.553C497.603 675.893 495.265 676.658 495.265 677.636C495.265 678.316 496.541 678.486 507.084 679.209C517.202 679.889 518.052 679.847 531.274 678.996C538.756 678.529 546.026 677.848 547.429 677.508C548.789 677.168 552.658 676.488 556.059 675.978C561.841 675.17 563.541 674.873 572.001 673.214C573.872 672.832 576.55 672.364 577.953 672.109C579.356 671.897 581.354 671.429 582.417 671.131C583.48 670.791 586.116 670.154 588.284 669.643C594.788 668.198 599.422 667.135 604.099 666.03C606.564 665.435 610.178 664.669 612.176 664.329C614.174 663.947 617.83 663.266 620.339 662.799C622.89 662.331 625.483 661.949 626.121 661.949C626.758 661.949 628.459 661.651 629.819 661.268C631.222 660.886 634.496 660.333 637.046 660.035C639.64 659.738 642.786 659.27 644.061 659.015C646.272 658.59 648.227 658.335 656.177 657.272C658.048 657.017 661.959 656.422 664.893 655.954C667.826 655.529 671.355 655.146 672.757 655.146C674.16 655.104 676.159 654.934 677.221 654.679C678.284 654.466 680.495 654.084 682.11 653.871C683.768 653.616 686.829 653.148 688.912 652.808C691.038 652.468 696.012 651.703 699.966 651.065C703.962 650.47 708.171 649.79 709.319 649.577C710.509 649.365 713.357 648.897 715.696 648.599C718.034 648.259 720.415 647.834 721.01 647.579C721.605 647.367 723.008 647.026 724.198 646.856C725.346 646.686 728.492 646.006 731.213 645.283C733.891 644.603 737.25 643.753 738.653 643.455C740.056 643.115 742.351 642.477 743.754 642.01C750.004 639.969 757.996 637.121 760.335 636.186C765.011 634.23 773.896 629.596 777.552 627.173C782.441 623.942 789.243 617.097 791.114 613.484C793.027 609.7 794.558 604.131 794.558 600.687C794.558 594.82 790.391 587.423 785.035 583.809C780.826 580.961 773.769 578.07 768.71 577.092C766.967 576.795 764.883 576.327 764.033 576.114C759.824 574.967 743.372 573.989 741.629 574.754Z" fill="#00AFE6"/>
<path d="M521.879 675.554C524.177 675.444 527.019 675.262 531.017 675.005L531.024 675.004C534.729 674.772 538.377 674.489 541.262 674.221C542.706 674.088 543.942 673.96 544.89 673.846C545.365 673.79 545.752 673.739 546.046 673.695C546.363 673.648 546.487 673.621 546.487 673.621V673.622C548.079 673.228 552.099 672.527 555.465 672.022L555.486 672.019L555.505 672.016C561.188 671.222 562.811 670.94 571.232 669.29C573.158 668.897 575.895 668.418 577.238 668.174L577.295 668.163L577.354 668.154C578.554 667.972 580.387 667.546 581.338 667.28C582.649 666.876 585.347 666.225 587.368 665.75L587.392 665.744L587.416 665.739C593.898 664.299 598.511 663.241 603.161 662.142V662.141C605.66 661.538 609.316 660.763 611.439 660.398C613.453 660.013 617.111 659.332 619.606 658.867V658.866L619.618 658.864C620.934 658.623 622.267 658.403 623.365 658.241C624.316 658.101 625.446 657.948 626.121 657.948C626.031 657.948 626.063 657.955 626.279 657.928C626.462 657.905 626.703 657.867 626.986 657.816C627.557 657.713 628.197 657.569 628.736 657.418L628.751 657.414L628.767 657.409C630.463 656.947 633.972 656.367 636.582 656.062L636.59 656.061C639.136 655.769 642.158 655.316 643.277 655.093L643.306 655.087C645.659 654.634 647.767 654.362 655.637 653.309V653.308C657.462 653.06 661.338 652.47 664.263 652.004L664.29 652L664.319 651.996C667.173 651.582 670.87 651.166 672.646 651.148C673.989 651.107 675.642 650.944 676.288 650.789L676.362 650.771L676.437 650.757C677.564 650.531 679.828 650.14 681.536 649.913C683.212 649.655 686.222 649.194 688.268 648.86L688.281 648.858C690.495 648.504 695.33 647.761 699.329 647.116L699.353 647.112L699.376 647.109C703.37 646.514 707.518 645.843 708.59 645.644L708.603 645.641L708.616 645.639C709.841 645.421 712.724 644.948 715.136 644.639C716.263 644.475 717.38 644.293 718.268 644.126C718.717 644.042 719.077 643.967 719.338 643.905C719.452 643.878 719.524 643.86 719.561 643.849L719.665 643.812C720.578 643.486 722.245 643.097 723.612 642.9V642.899C724.543 642.761 727.523 642.125 730.186 641.418L730.207 641.412L730.228 641.406C732.803 640.752 736.177 639.899 737.727 639.564C739.052 639.242 741.223 638.637 742.49 638.215L742.501 638.211L742.513 638.208C748.703 636.187 756.558 633.384 758.819 632.483C763.316 630.599 771.942 626.093 775.342 623.839L775.347 623.836C777.488 622.421 780.197 620.103 782.624 617.655C785.114 615.145 786.907 612.898 787.553 611.66C789.259 608.278 790.558 603.343 790.558 600.687C790.558 598.626 789.797 595.986 788.321 593.368C786.855 590.769 784.868 588.523 782.797 587.126L782.792 587.122C779.049 584.588 772.509 581.903 767.964 581.022C766.119 580.704 763.98 580.224 763.063 579.995L763.022 579.985L762.981 579.973C761.343 579.527 756.598 579.007 751.666 578.71C749.287 578.567 747.019 578.484 745.269 578.482C744.388 578.481 743.692 578.501 743.202 578.536C743.012 578.549 742.884 578.564 742.807 578.574C742.446 578.687 742.119 578.745 741.999 578.765C741.77 578.805 741.518 578.84 741.266 578.871C740.757 578.934 740.123 578.995 739.418 579.054C738.003 579.171 736.196 579.281 734.33 579.346H734.327C730.781 579.469 725.869 579.964 723.193 580.436L723.156 580.442L720.824 580.838C718.301 581.27 715.365 581.786 713.43 582.135L713.417 582.137L713.406 582.138C706.606 583.323 702.841 584.334 693.496 587.678L691.549 588.379C689.016 589.308 686.317 590.293 685.567 590.557L685.535 590.569L685.5 590.58L685.194 590.688C683.366 591.362 677.273 593.919 673.987 595.401H673.988C672.566 596.047 670.273 597.112 668.724 597.82L668.703 597.83L667.882 598.212C662.813 600.616 643.865 610.136 640.671 611.888L640.663 611.893L638.378 613.149C637.614 613.571 636.889 613.971 636.411 614.232L636.348 614.266L636.285 614.298L635.859 614.522C634.583 615.21 631.422 617.007 628.204 618.862L628.172 618.88C624.621 620.885 620.692 623.112 619.548 623.707C618.639 624.18 616.634 625.378 615.053 626.361C613.467 627.347 608.269 630.543 603.552 633.432H603.551C598.828 636.343 591.778 640.818 587.804 643.396C581.325 647.659 578.037 649.722 574.249 651.837L574.215 651.855L574.181 651.874C573.601 652.183 570.555 653.894 567.386 655.692L567.378 655.696L567.37 655.701L566.112 656.402C559.847 659.867 553.755 662.84 545.16 666.616C544.492 666.92 543.797 667.247 543.2 667.53C542.734 667.751 542.283 667.964 541.986 668.102C541.228 668.519 540.089 669.001 539.23 669.306C538.764 669.491 538.105 669.74 537.462 669.983C536.757 670.25 536.036 670.525 535.438 670.764L535.426 670.768L534.499 671.132C530.662 672.614 525.061 674.573 521.879 675.554Z" stroke="white" stroke-opacity="0.5" stroke-width="8"/>
<path d="M390.611 599.39C382.977 604.119 379.835 621.824 378.661 630.04C375.911 649.287 370.092 668.467 369.554 687.935C369.339 695.85 370.486 702.978 375.294 709.574C393.894 734.685 417.434 757.54 443.23 775.044C449.799 779.627 456.829 783.445 463.298 788.066C464.094 788.729 466.979 788.774 467.122 787.415C467.578 784.451 463.873 778.675 462.735 776.115C447.852 743.372 435.801 714.504 422.386 681.216C412.697 657.176 412.685 643.256 403.827 619.214C397.079 604.874 395.208 599.058 390.611 599.39Z" fill="#00A7B8"/>
<path d="M460.427 780.411C459.955 779.517 459.432 778.533 459.08 777.74C444.17 744.937 432.099 716.019 418.675 682.711C413.721 670.418 411.242 660.703 408.909 651.166C406.591 641.69 404.43 632.452 400.128 620.747C396.688 613.431 394.712 608.799 392.965 605.828C392.328 604.747 391.85 604.124 391.512 603.769C390.753 604.528 389.962 605.587 389.171 606.987C387.972 609.108 386.927 611.733 386.032 614.599C384.242 620.333 383.199 626.56 382.621 630.605C381.227 640.359 379.043 650.18 377.206 659.665C375.35 669.25 373.812 678.649 373.552 688.044H373.553C373.351 695.485 374.438 701.609 378.526 707.218L378.525 707.219C396.865 731.972 420.075 754.498 445.475 771.734L445.518 771.764C448.699 773.982 452.002 776.023 455.413 778.143C457.302 779.317 459.221 780.516 461.133 781.762C460.9 781.308 460.663 780.857 460.427 780.411Z" stroke="white" stroke-opacity="0.5" stroke-width="8"/>
<path d="M293.541 639.166C286.219 642.442 291.112 653.394 298.302 652.43C302.129 651.92 304.084 649.667 304.127 645.671C304.235 639.832 298.774 636.903 293.541 639.166Z" fill="#009FC8"/>
<path d="M297.771 648.466H297.774C299.014 648.3 299.445 647.93 299.605 647.744C299.779 647.543 300.112 647.002 300.127 645.628V645.612L300.128 645.597C300.156 644.053 299.512 643.242 298.809 642.829C298.026 642.369 296.719 642.159 295.153 642.828C294.338 643.198 294.104 643.624 294.004 643.945C293.869 644.377 293.861 645.069 294.195 645.906C294.929 647.747 296.493 648.637 297.771 648.466Z" stroke="white" stroke-opacity="0.5" stroke-width="8"/>
<path d="M161.665 668.029C154.534 671.085 151.256 676.972 152.142 684.566C153.186 693.898 160.26 698.723 168.977 698.723C175.537 698.723 181.638 696.573 184.537 690.05C186.535 685.672 185.259 678.487 181.646 673.768C179.35 670.749 177.692 669.474 174.376 668.114C170.763 666.668 164.938 666.626 161.665 668.029Z" fill="#00B9EC"/>
<path d="M168.977 694.723C174.735 694.723 178.891 692.906 180.882 688.426L180.89 688.408L180.897 688.39C181.454 687.169 181.688 685.163 181.257 682.736C180.835 680.359 179.844 677.995 178.47 676.2L178.462 676.189C177.427 674.828 176.679 674.051 175.941 673.479C175.215 672.915 174.334 672.422 172.882 671.825C171.668 671.341 169.839 671.017 167.865 671.003C165.862 670.99 164.191 671.298 163.24 671.706C160.343 672.947 158.473 674.648 157.371 676.579C156.265 678.516 155.753 680.999 156.115 684.103L156.116 684.112L156.117 684.122C156.53 687.807 158.074 690.348 160.169 692.011C162.318 693.717 165.337 694.723 168.977 694.723Z" stroke="white" stroke-opacity="0.5" stroke-width="8"/>
<path d="M309.695 669.09C306.273 670.322 304.168 672.968 304.168 676.615C304.168 679.464 304.976 680.909 307.569 682.695C312.798 686.308 318.368 683.885 319.09 677.635C319.43 674.66 318.58 672.704 316.114 670.706C314.286 669.218 311.395 668.495 309.695 669.09Z" fill="#00A7DB"/>
<path d="M309.843 679.404C311.566 680.594 312.803 680.467 313.415 680.199C314.005 679.941 314.886 679.172 315.116 677.177C315.23 676.177 315.11 675.687 314.981 675.386C314.841 675.061 314.517 674.559 313.596 673.813L313.589 673.808C313.19 673.484 312.56 673.167 311.882 672.997C311.559 672.916 311.291 672.884 311.104 672.882C311.035 672.881 310.989 672.886 310.962 672.888C308.996 673.624 308.168 674.879 308.168 676.615C308.168 677.667 308.32 677.98 308.387 678.1C308.48 678.266 308.757 678.656 309.838 679.4L309.843 679.404Z" stroke="white" stroke-opacity="0.5" stroke-width="8"/>
<path d="M631.733 676.021C623.528 676.701 614.727 678.019 610.051 679.252C608.775 679.592 606.097 680.187 604.099 680.612C596.914 682.185 594.236 682.78 593.896 682.993C593.726 683.12 592.068 683.418 590.24 683.63C588.369 683.885 586.031 684.353 584.968 684.693C582.928 685.331 578.549 686.266 573.702 686.989C572.087 687.287 569.493 687.754 567.963 688.094C566.432 688.434 563.286 688.902 560.948 689.157C558.61 689.412 555.379 689.752 553.721 690.007C540.797 691.708 524.302 692.133 512.568 691.113C508.104 690.688 503.258 690.177 501.855 689.922C500.452 689.667 497.689 689.2 495.691 688.945C493.692 688.647 490.631 688.094 488.888 687.754C487.145 687.372 483.489 686.691 480.811 686.181C476.262 685.331 474.604 684.906 469.12 683.418C467.972 683.078 466.569 682.695 466.059 682.568C465.549 682.44 465.039 682.525 464.869 682.78C463.768 684.615 468.36 687.192 469.484 687.754C479.508 693.045 488.543 699.698 498.879 704.504C504.172 706.91 509.556 709.147 514.821 711.604C517.457 712.837 521.071 714.155 526.087 715.77C543.51 721.314 542.451 722.41 564.243 727.612C586.035 732.814 609.966 730.565 613.665 729.97C615.067 729.757 618.979 729.247 622.38 728.864C625.781 728.482 629.607 727.887 630.925 727.589C632.243 727.249 633.901 726.994 634.538 726.994C635.219 726.994 637.004 726.611 638.535 726.186C640.065 725.718 642.914 724.826 644.912 724.23C650.141 722.657 655.71 720.192 661.279 716.961C662.215 716.408 663.575 715.643 664.255 715.26C668.421 712.922 673.14 708.245 674.926 704.759C676.074 702.464 677.222 697.49 677.222 694.896C677.222 692.601 676.244 689.072 675.139 687.287C672.928 683.715 667.529 679.889 662.342 678.189C655.03 675.808 653.202 675.553 644.019 675.638C639.257 675.638 633.731 675.85 631.733 676.021Z" fill="#009CD7"/>
<path d="M565.172 723.721C586.278 728.759 609.638 726.566 613.029 726.021L613.066 726.015C614.538 725.792 618.504 725.275 621.933 724.89C625.277 724.513 628.91 723.942 630.029 723.691C631.467 723.328 633.433 722.994 634.538 722.994C634.409 722.994 634.417 723.005 634.649 722.971C634.84 722.942 635.098 722.896 635.411 722.831C636.021 722.706 636.739 722.532 637.409 722.347C638.899 721.891 641.78 720.989 643.77 720.396V720.397C648.646 718.93 653.916 716.606 659.244 713.518V713.517C660.224 712.938 661.625 712.15 662.294 711.773L662.297 711.771C663.998 710.817 665.939 709.304 667.675 707.592C669.427 705.864 670.726 704.174 671.355 702.955C671.72 702.218 672.207 700.764 672.608 699.035C673.01 697.301 673.222 695.75 673.222 694.896C673.222 694.226 673.063 693.145 672.738 691.96C672.408 690.759 672.011 689.834 671.738 689.392C671.011 688.218 669.562 686.733 667.54 685.297C665.681 683.976 663.552 682.851 661.504 682.129L661.104 681.992C657.469 680.809 655.472 680.248 653.33 679.95C651.143 679.646 648.669 679.595 644.056 679.638H644.019C639.317 679.638 633.914 679.849 632.072 680.006L632.063 680.007L630.539 680.14C622.907 680.84 615.149 682.044 611.071 683.119H611.07C610.026 683.397 608.211 683.812 606.534 684.179L604.932 684.524C601.343 685.31 598.911 685.845 597.331 686.21C596.535 686.394 596 686.524 595.659 686.615C595.592 686.633 595.538 686.65 595.494 686.662C595.194 686.799 594.981 686.859 594.979 686.859C594.777 686.924 594.581 686.973 594.43 687.009C594.117 687.083 593.752 687.154 593.383 687.219C592.652 687.347 591.733 687.482 590.781 687.594C588.994 687.837 586.922 688.268 586.187 688.503L586.161 688.511L585.698 688.65C583.265 689.356 578.957 690.247 574.377 690.933C572.71 691.24 570.254 691.683 568.83 691.999C567.092 692.385 563.781 692.872 561.382 693.134C558.974 693.396 555.874 693.723 554.329 693.961L554.286 693.968L554.242 693.974C541.055 695.709 524.268 696.145 512.222 695.098L512.205 695.097L512.189 695.095C507.815 694.678 502.754 694.151 501.14 693.857C499.764 693.607 497.079 693.154 495.184 692.912L495.143 692.907L495.101 692.901C493.022 692.592 489.897 692.026 488.122 691.68L488.076 691.671L488.031 691.661C486.786 691.388 484.493 690.952 482.274 690.531C483.577 691.326 484.867 692.116 486.145 692.895C490.937 695.813 495.616 698.577 500.565 700.878C505.595 703.164 511.329 705.56 516.513 707.979L516.516 707.98C518.913 709.102 522.33 710.358 527.314 711.963L527.313 711.964C545.241 717.669 543.524 718.553 565.172 723.721ZM595.822 686.498C595.881 686.466 595.947 686.428 596.016 686.385L596.015 686.384C595.949 686.425 595.885 686.463 595.822 686.498Z" stroke="white" stroke-opacity="0.5" stroke-width="8"/>
<path d="M438.553 679.669C437.648 681.488 439.754 685.535 440.211 687.298C447.522 715.271 463.191 740.714 474.859 766.968C481.111 781.556 493.193 798.892 506.744 807.993C542.318 831.561 590.793 837.752 633.008 837.752C647.76 837.752 659.069 837.157 664.723 836.052C669.144 835.202 669.485 834.691 665.913 834.351C653.816 833.396 640.264 828.126 628.97 823.468C620.96 820.24 612.505 817.774 604.78 814.158C586.057 805.394 558.935 794.049 543.093 781.507C517.653 761.155 488.326 745.639 467.292 720.203C461.701 713.494 455.987 706.648 451.137 699.372C449.938 697.611 448.528 695.919 447.481 694.058C446.165 691.573 444.644 689.206 443.357 686.703C442.844 685.758 439.268 678.233 438.553 679.669Z" fill="#008FD1"/>
<path d="M633.008 833.752C637.118 833.752 640.931 833.704 644.407 833.615C638.422 831.631 632.642 829.309 627.474 827.178C623.56 825.601 619.559 824.218 615.411 822.721C611.313 821.243 607.122 819.671 603.083 817.781C593.855 813.461 582.224 808.354 571.081 802.833C559.926 797.307 548.873 791.186 540.61 784.644L540.602 784.637L540.594 784.631C527.944 774.511 514.564 765.771 501.18 755.992C487.953 746.326 475.051 735.86 464.219 722.764C459.57 717.185 454.719 711.372 450.338 705.246C453.077 712.237 456.204 719.146 459.509 726.05C465.692 738.966 472.663 752.177 478.514 765.343L478.526 765.368L478.536 765.392C484.499 779.306 495.898 795.615 508.379 804.266L508.974 804.672C543.537 827.56 591.015 833.752 633.008 833.752Z" stroke="white" stroke-opacity="0.5" stroke-width="8"/>
<path d="M755.658 683.673C740.687 688.667 726.922 695.195 715.356 704.504C712.95 706.4 698.722 717.223 701.412 720.659C722.515 721.694 744.429 711.166 765.436 715.94C780.65 719.398 805.497 713.491 800.127 693.238C797.29 682.626 787.088 680.654 777.51 680.654C770.112 680.654 764.706 680.654 755.658 683.673Z" fill="#00AAE3"/>
<path d="M707.487 716.659C715.593 716.286 723.903 714.53 732.761 712.959C743.517 711.051 754.959 709.457 766.323 712.04C773.19 713.601 782.263 713.001 788.768 709.875C791.968 708.337 794.292 706.316 795.593 703.912C796.852 701.586 797.38 698.491 796.262 694.271C795.192 690.268 792.855 688.011 789.725 686.623C786.392 685.144 782.117 684.654 777.51 684.654C770.226 684.654 765.345 684.658 756.924 687.468C742.228 692.37 728.939 698.706 717.864 707.62L717.847 707.634L717.832 707.646L716.427 708.747C714.619 710.173 711.752 712.487 709.24 714.892C708.599 715.506 708.011 716.099 707.487 716.659Z" stroke="white" stroke-opacity="0.5" stroke-width="8"/>
<path d="M456.366 694.27C490.871 745.676 547.146 779.02 601.973 804.932C611.189 809.269 667.169 836.558 675.452 828.276C677.819 825.908 661.017 804.239 658.516 800.595C639.595 772.891 607.665 750.393 574.977 741.885C550.591 735.538 525.592 729.799 502.917 718.46C486.614 710.308 467.142 700.625 454.112 687.595C450.841 684.542 456.082 693.844 456.366 694.27Z" fill="#0089CD"/>
<path d="M670.23 825.829C670.459 825.825 670.667 825.816 670.858 825.803C670.783 825.656 670.707 825.498 670.62 825.336C669.449 823.122 667.597 820.229 665.507 817.172C663.435 814.141 661.205 811.059 659.323 808.488C657.488 805.982 655.889 803.837 655.218 802.859L655.212 802.851C636.838 775.946 605.724 754.02 573.97 745.756C549.774 739.458 524.272 733.611 501.128 722.038C490.908 716.927 479.093 711.057 468.353 703.993C502.552 747.804 553.417 777.559 603.676 801.312C608.336 803.505 624.492 811.342 640.52 817.611C648.552 820.753 656.388 823.434 662.643 824.828C665.785 825.528 668.339 825.86 670.23 825.829Z" stroke="white" stroke-opacity="0.5" stroke-width="8"/>
<path d="M327.083 695.917C323.979 697.277 321.896 701.614 322.449 705.482C323.002 709.139 326.658 712.115 330.569 712.115C333.417 712.115 334.395 711.732 336.308 709.861C338.987 707.268 338.902 703.782 336.096 700.126C333.332 696.512 329.676 694.812 327.083 695.917Z" fill="#00A2CD"/>
<path d="M330.569 708.115C331.89 708.114 332.218 708.009 332.328 707.966C332.405 707.936 332.662 707.832 333.511 707.001L333.518 706.994L333.526 706.988C334.149 706.384 334.269 705.907 334.26 705.482C334.247 704.937 333.991 703.953 332.923 702.561L332.919 702.556C331.849 701.157 330.725 700.292 329.835 699.877C329.098 699.534 328.738 699.58 328.66 699.596C328.206 699.807 327.531 700.395 326.997 701.499C326.468 702.593 326.258 703.838 326.406 704.901C326.646 706.418 328.458 708.115 330.569 708.115Z" stroke="white" stroke-opacity="0.5" stroke-width="8"/>
<path d="M216.294 705.875C200.059 716.743 199.547 738.048 206.643 754.213C219.945 785.575 247.033 799.213 275.175 812.158C311.875 829.743 357.109 840.268 397.697 843.958C449.725 847.899 500.281 850.914 552.573 847.657C569.283 846.658 555.366 845.015 547.174 844.128C471.266 836.441 393.672 806.816 338.349 753.277C310.416 726.166 256.19 679.642 216.294 705.875Z" fill="#00B9EB"/>
<path d="M397.999 839.969C439.95 843.147 480.802 845.71 522.321 844.882C453.755 833.722 385.716 804.682 335.568 756.152L335.564 756.148C321.648 742.641 301.441 724.565 279.927 713.102C258.311 701.585 236.584 697.339 218.518 709.2C204.628 718.5 203.57 737.262 210.306 752.605L210.316 752.628L210.325 752.651C222.959 782.438 248.627 795.544 276.846 808.525L276.875 808.537L276.903 808.551C313.056 825.874 357.776 836.307 397.998 839.97L397.999 839.969Z" stroke="white" stroke-opacity="0.5" stroke-width="8"/>
<path d="M699.072 740.142C695.289 741.673 693.376 744.308 693.376 748.007C693.376 752.556 695.927 755.107 700.986 755.659C704.174 755.999 706.682 755.319 709.701 753.321C712.804 751.238 713.697 750.133 714.122 747.752C715.503 740.117 704.628 737.803 699.072 740.142Z" fill="#0094C9"/>
<path d="M701.41 751.682C703.411 751.895 704.935 751.589 707.059 750.265L707.493 749.985C708.983 748.984 709.533 748.476 709.787 748.157C709.918 747.992 710.05 747.803 710.184 747.049L710.186 747.04C710.343 746.174 710.15 745.711 709.899 745.366C709.573 744.917 708.905 744.377 707.768 743.942C705.378 743.027 702.346 743.104 700.625 743.829L700.572 743.85C699.198 744.406 698.454 745.042 698.044 745.608C697.653 746.147 697.376 746.88 697.376 748.007C697.376 749.512 697.776 750.167 698.118 750.51C698.521 750.915 699.425 751.464 701.409 751.682L701.41 751.682Z" stroke="white" stroke-opacity="0.5" stroke-width="8"/>
<path d="M782.229 768.754C763.719 769.827 745.488 774.88 728.237 781.508C717.566 785.589 705.28 792.816 705.28 795.027C704.554 797.205 706.088 796.472 707.576 795.877C713.613 793.581 733.254 792.688 743.967 794.219C767.862 797.538 790.756 805.819 812.541 816.071C828.559 823.19 859.582 830.155 870.061 810.672C872.494 798.249 867.907 787.147 857.222 780.572C836.815 767.046 805.325 767.203 782.229 768.754Z" fill="#00B1E7"/>
<path d="M843.449 819.348C853.656 819.529 861.961 816.708 866.248 809.295C868.114 798.685 864.148 789.531 855.126 783.979L855.068 783.944L855.012 783.907C845.562 777.643 833.305 774.409 820.298 772.985C807.333 771.565 793.958 771.975 782.497 772.745L782.478 772.746L782.461 772.747L780.778 772.856C763.394 774.096 746.167 778.904 729.671 785.242L729.666 785.244C726.252 786.549 722.65 788.2 719.375 789.892C720.823 789.779 722.319 789.687 723.836 789.618C730.968 789.293 738.832 789.445 744.533 790.259L744.532 790.26C768.938 793.652 792.209 802.088 814.177 812.421C821.859 815.833 833.075 819.165 843.449 819.348Z" stroke="white" stroke-opacity="0.5" stroke-width="8"/>
</svg>
